# xmcd
#
# Track frame offsets:
#	150
#	17397
#	37185
#	56485
#	77762
#	93747
#	112420
#	132605
#	154477
#	162335
#
# Disc length: 2453 seconds
#
# Revision: 2
# Processed by: cddbd v1.4b42PL0 Copyright (c) Steve Scherf et al.
# Submitted via: EZCDDA 4.3.2
#
DISCID=8c09930a
DTITLE=Choi JaeHoon - Ignore
DYEAR=1900
DGENRE=
TTITLE0=01외면(Ignore)
TTITLE1=02널보낸후에
TTITLE2=03Good_bye
TTITLE3=04마지막너의 뒷모습
TTITLE4=05스캔들
TTITLE5=06혼자임을 느꼈을때
TTITLE6=07혼자떠나는여행
TTITLE7=08Tonight
TTITLE8=09동심
TTITLE9=10Tonight
EXTD=
EXTT0=
EXTT1=
EXTT2=
EXTT3=
EXTT4=
EXTT5=
EXTT6=
EXTT7=
EXTT8=
EXTT9=
PLAYORDER=
